PathFileType	4	(X/Y/Z)	C:\Users\Biomechanik\SynologyDrive\AlexP\Athlete_03\Athlete_3_25_03_31\Squat_bar_01\marker_experimental.trc
DataRate	CameraRate	NumFrames	NumMarkers	Units	OrigDataRate	OrigDataStartFrame	OrigNumFrames
200.000000	200.000000	4	55	mm	200.000000	241	482
Frame#	Time	BL			BR			GLAB			RFHD			LFHD			C7			T6			SPINMOL			SPINM2			SPINM3			T12			BELTOL			BELT2			BELT3			SACROL			SACR2			SACR3			LTHOL			LTH2			LTH3			LSHAOL			LSHA2			LSHA3			LHEE			LTOE			LM5			RTHOL			RTH2			RTH3			RSHAOL			RSHA2			RSHA3			RHEE			RTOE			RM5			STRN			XIPH			LACR			LUAOL			LUA2			LUA3			LLAOL			LLA2			LLA3			LWRR			LWRU			RACR			RUAOL			RUA2			RUA3			RLAOL			RLA2			RLA3			RWRR			RWRU			
		X1	Y1	Z1	X2	Y2	Z2	X3	Y3	Z3	X4	Y4	Z4	X5	Y5	Z5	X6	Y6	Z6	X7	Y7	Z7	X8	Y8	Z8	X9	Y9	Z9	X10	Y10	Z10	X11	Y11	Z11	X12	Y12	Z12	X13	Y13	Z13	X14	Y14	Z14	X15	Y15	Z15	X16	Y16	Z16	X17	Y17	Z17	X18	Y18	Z18	X19	Y19	Z19	X20	Y20	Z20	X21	Y21	Z21	X22	Y22	Z22	X23	Y23	Z23	X24	Y24	Z24	X25	Y25	Z25	X26	Y26	Z26	X27	Y27	Z27	X28	Y28	Z28	X29	Y29	Z29	X30	Y30	Z30	X31	Y31	Z31	X32	Y32	Z32	X33	Y33	Z33	X34	Y34	Z34	X35	Y35	Z35	X36	Y36	Z36	X37	Y37	Z37	X38	Y38	Z38	X39	Y39	Z39	X40	Y40	Z40	X41	Y41	Z41	X42	Y42	Z42	X43	Y43	Z43	X44	Y44	Z44	X45	Y45	Z45	X46	Y46	Z46	X47	Y47	Z47	X48	Y48	Z48	X49	Y49	Z49	X50	Y50	Z50	X51	Y51	Z51	X52	Y52	Z52	X53	Y53	Z53	X54	Y54	Z54	X55	Y55	Z55	

242	1.205	229.5768280029297	838.3320312500001	-2235.831787109375	268.49560546875	875.211181640625	-215.5691528320312	546.351806640625	1016.346801757813	-1187.544677734375	493.9756469726562	1042.078491210938	-1126.148315429688	505.5231018066406	1039.621948242188	-1262.189331054688	304.2336120605469	913.7692871093751	-1196.16650390625	175.6696624755859	804.8599853515626	-1204.5791015625	153.0901336669922	784.1120605468751	-1225.428588867188	143.9976501464844	777.5778198242189	-1176.519287109375	113.4962310791016	732.1951904296876	-1213.826782226562	85.34380340576172	687.1958618164064	-1213.357543945312	50.51301193237305	679.8967895507814	-1227.6142578125	49.39395904541016	675.5452270507814	-1177.155517578125	11.46537208557129	629.6668701171876	-1208.389892578125	-50.4674186706543	510.8979187011719	-1235.2412109375	-48.96172714233398	508.3844909667969	-1183.6494140625	-59.91059112548828	449.6522827148438	-1211.710205078125	142.33251953125	393.6021728515626	-1510.173583984375	189.5029296875	335.7840576171876	-1536.133178710938	192.7104339599609	385.5967407226564	-1543.815551757812	236.1056060791016	292.643280029297	-1621.807983398438	177.1539306640625	254.3328399658204	-1583.94970703125	218.2475738525391	235.4533233642579	-1606.410278320312	113.7668838500977	71.83161163330087	-1464.060913085938	315.2227172851562	49.2839126586915	-1541.8359375	235.3307189941406	25.77453422546397	-1622.30908203125	126.5952072143555	379.2963256835938	-910.1687622070312	168.9246368408203	434.0356445312501	-869.7969970703125	176.5748291015625	384.9727783203126	-873.1533203125	215.6332855224609	304.6501770019532	-797.5061645507812	214.7718963623047	225.7661743164063	-798.9857788085938	184.9693756103516	257.0798645019532	-823.6310424804688	95.32955169677734	66.87997436523443	-969.2662963867188	280.8342895507812	46.6382331848145	-869.3860473632812	190.3392181396484	38.36332702636724	-798.7463989257812	413.3033447265625	748.1502685546876	-1202.97412109375	366.3615112304688	606.8839721679689	-1198.973510742188	339.9585571289062	862.8880615234376	-1367.95947265625	213.7149353027344	760.1294555664064	-1461.404418945312	160.7596282958984	723.3098754882814	-1450.134033203125	190.40576171875	704.7521362304689	-1486.838989257812	154.036376953125	641.6601562500001	-1554.787353515625	224.1175842285156	629.7323608398439	-1591.005981445312	200.3562316894531	673.0852661132814	-1580.634399414062	265.0249938964844	746.6043701171876	-1621.349609375	279.9635620117188	772.8115234375001	-1548.002807617188	352.544189453125	855.4244995117189	-1038.145751953125	228.6373596191406	758.4958496093751	-949.1891479492188	198.2607727050781	706.5471801757812	-921.0792846679688	176.0637817382812	722.5390625000001	-965.9180297851562	186.7659149169922	639.1494750976562	-838.3416137695312	197.6524810791016	717.5089721679688	-827.2998046875	229.9090881347656	678.9642333984375	-817.5680541992188	273.2560119628906	760.8773193359375	-798.62109375	301.9017944335938	787.9336547851562	-868.2398071289062	
243	1.21	229.8699645996094	836.4066162109376	-2235.8427734375	268.3609619140625	872.9541625976562	-215.5571136474609	546.3255004882812	1014.357604980469	-1187.47607421875	493.9104919433594	1040.065185546875	-1126.096069335938	505.5240173339844	1037.616088867188	-1262.144897460938	304.2614440917969	911.6762084960939	-1196.166748046875	175.7450714111328	802.7993164062501	-1204.655029296875	153.2017517089844	782.0565185546876	-1225.55517578125	144.0676727294922	775.5193481445314	-1176.64208984375	113.584587097168	730.1389160156251	-1214.004516601562	85.50363922119141	685.4018554687501	-1213.54931640625	50.67185974121094	678.1414184570314	-1227.829345703125	49.49910736083984	673.7753906250001	-1177.368408203125	11.6100959777832	627.9093017578126	-1208.611206054688	-50.32992553710938	508.7615356445313	-1235.447021484375	-48.86505889892578	506.3142395019532	-1183.875244140625	-59.69391250610352	447.5308837890626	-1211.89208984375	142.7195587158203	392.4046325683595	-1510.176391601562	190.0973358154297	334.8606262207032	-1536.321411132812	193.1377716064453	384.6830444335939	-1543.850830078125	236.4910888671875	292.5112915039064	-1621.7666015625	177.4645538330078	254.281234741211	-1583.943115234375	218.5603637695312	235.3484344482423	-1606.353881835938	113.8121871948242	71.8169479370118	-1464.004272460938	315.2611999511719	49.25269699096689	-1541.77392578125	235.3446655273438	25.80848884582529	-1622.279052734375	126.7715606689453	378.2183532714844	-910.197509765625	168.8834533691406	433.2509460449219	-870.0084228515625	176.6820068359375	384.1964721679688	-873.1532592773438	215.7650909423828	304.5558776855469	-797.4534301757812	214.8869171142578	225.6727752685547	-798.9730224609375	185.0952301025391	257.0066833496094	-823.6104736328125	95.37416076660156	66.86537933349615	-969.300048828125	280.8511047363281	46.62964630126958	-869.4210815429688	190.3580474853516	38.38087844848638	-798.7727661132812	413.4380187988281	746.1080932617189	-1202.980834960938	366.5572204589844	604.8308715820314	-1199.007934570312	340.05859375	860.8433227539064	-1367.9638671875	213.9209442138672	758.0556030273439	-1461.493408203125	160.9569549560547	721.2298583984376	-1450.266235351562	190.6011047363281	702.6986083984376	-1486.95654296875	154.3295593261719	639.5662841796876	-1554.918701171875	224.431884765625	627.6961059570314	-1591.101318359375	200.6499938964844	671.0294189453126	-1580.737182617188	265.3076171875	744.5992431640626	-1621.357177734375	280.1723327636719	770.8018798828126	-1548.02294921875	352.5868225097656	853.2950439453126	-1038.153442382812	228.7065887451172	756.3198852539064	-949.2036743164062	198.3518829345703	704.3638305664062	-921.1077880859375	176.1370239257812	720.3542480468751	-965.93505859375	186.8388824462891	636.9606323242188	-838.3797607421875	197.7016296386719	715.3209228515625	-827.3286743164062	229.9572448730469	676.7833251953125	-817.582275390625	273.2803344726562	758.7100830078125	-798.6162719726562	301.9341430664062	785.7809448242188	-868.2265014648438	
244	1.215	230.1605224609375	834.5017700195314	-2235.855224609375	268.2221069335938	870.7247314453125	-215.5472412109374	546.2948608398438	1012.386596679688	-1187.396362304688	493.8403930664062	1038.06494140625	-1126.029541015625	505.525146484375	1035.635131835938	-1262.087646484375	304.2866821289062	909.6047973632814	-1196.17041015625	175.8171691894531	800.7612915039064	-1204.728881835938	153.3100891113281	780.0250244140626	-1225.677978515625	144.1327209472656	773.4869995117189	-1176.76513671875	113.6649627685547	728.1093139648439	-1214.17822265625	85.64373016357422	683.6252441406251	-1213.73779296875	50.81314086914062	676.3991088867189	-1228.040283203125	49.59137725830078	672.0209350585939	-1177.577026367188	11.74406051635742	626.1638183593751	-1208.823486328125	-50.19332885742188	506.6364135742188	-1235.64404296875	-48.76523208618164	504.2501831054688	-1184.09375	-59.47432327270508	445.4158020019532	-1212.069702148438	143.1145935058594	391.2137145996095	-1510.180541992188	190.697265625	333.9456481933595	-1536.502685546875	193.5737457275391	383.7708129882814	-1543.884765625	236.8787841796875	292.3817138671876	-1621.720703125	177.7783203125	254.2332763671876	-1583.930908203125	218.8744201660156	235.2462310791016	-1606.293823242188	113.8587265014648	71.80271148681649	-1463.945190429688	315.2990112304688	49.22035598754892	-1541.711181640625	235.3590240478516	25.84316635131846	-1622.24755859375	126.9482345581055	377.1428833007813	-910.2283935546875	168.8391571044922	432.4673767089844	-870.2186279296875	176.7873992919922	383.4228820800782	-873.1544799804688	215.8927459716797	304.4642333984376	-797.4028930664062	214.9987640380859	225.5807189941407	-798.961669921875	185.2194366455078	256.9346923828126	-823.5924682617188	95.42300415039062	66.84730529785162	-969.3358154296875	280.8683166503906	46.61977386474614	-869.4550170898438	190.3778533935547	38.39917373657232	-798.7999877929688	413.5692749023438	744.0902099609376	-1202.993286132812	366.7481994628906	602.7982788085939	-1199.0517578125	340.1535339355469	858.8211669921876	-1367.972045898438	214.1212921142578	756.0047607421876	-1461.586059570312	161.1486968994141	719.1752319335939	-1450.400390625	190.7808990478516	700.6677246093751	-1487.082763671875	154.6182403564453	637.4926147460939	-1555.052368164062	224.74365234375	625.6810913085939	-1591.197265625	200.9427795410156	668.9956665039064	-1580.841064453125	265.585693359375	742.6154174804689	-1621.36328125	280.3758239746094	768.8143310546876	-1548.042724609375	352.6285400390625	851.1832275390626	-1038.16552734375	228.7721557617188	754.1659545898439	-949.22119140625	198.4407196044922	702.2037963867188	-921.1382446289062	176.2072296142578	718.1907958984376	-965.9535522460938	186.9101867675781	634.795654296875	-838.4168701171875	197.7489013671875	713.1566162109375	-827.3576049804688	230.0035400390625	674.6260375976562	-817.596923828125	273.3026733398438	756.5678100585938	-798.6141967773438	301.9627990722656	783.6524658203125	-868.2160034179688	
245	1.22	230.448974609375	832.6173706054689	-2235.868896484375	268.0791625976562	868.5218505859375	-215.5399017333984	546.2597045898438	1010.433654785156	-1187.305786132812	493.7647399902344	1036.077392578125	-1125.948852539062	505.5261840820312	1033.679809570312	-1262.017700195312	304.3097534179688	907.5550537109376	-1196.178833007812	175.8858642578125	798.7465820312501	-1204.800170898438	153.4146881103516	778.0181884765626	-1225.796020507812	144.1926574707031	771.4815673828126	-1176.88720703125	113.7370681762695	726.1077270507814	-1214.34619140625	85.76264190673828	681.8657836914064	-1213.921997070312	50.9340705871582	674.6693725585939	-1228.246215820312	49.66945648193359	670.2810058593751	-1177.779174804688	11.86396312713623	624.4293823242189	-1209.027587890625	-50.05908584594727	504.5206604003907	-1235.83251953125	-48.66277313232422	502.1903381347657	-1184.304077148438	-59.2518424987793	443.3046264648438	-1212.242919921875	143.5184936523438	390.029266357422	-1510.186157226562	191.3024291992188	333.0390014648439	-1536.677856445312	194.0185699462891	382.860565185547	-1543.917236328125	237.2694702148438	292.2544555664064	-1621.670166015625	178.0960235595703	254.1891632080079	-1583.912475585938	219.1902008056641	235.1467437744141	-1606.230224609375	113.9064025878906	71.78858947753915	-1463.8837890625	315.3363647460938	49.18683624267587	-1541.64794921875	235.3736267089844	25.87905502319346	-1622.214477539062	127.1270980834961	376.0676574707032	-910.2616577148438	168.7925872802734	431.6828613281251	-870.4269409179688	176.8930816650391	382.6502075195313	-873.1572875976562	216.0166778564453	304.3754882812501	-797.3550415039062	215.1076812744141	225.4903869628907	-798.95166015625	185.342529296875	256.8641052246094	-823.577392578125	95.47593688964844	66.82640838623053	-969.3737182617188	280.8861389160156	46.60835647583013	-869.4874877929688	190.3987121582031	38.41837692260747	-798.8281860351562	413.6969909667969	742.0958862304689	-1203.011962890625	366.9330139160156	600.7869873046876	-1199.1044921875	340.2433471679688	856.8200683593751	-1367.984985351562	214.3149108886719	753.9760742187501	-1461.683227539062	161.3345489501953	717.1445312500001	-1450.536865234375	190.9463653564453	698.6580200195314	-1487.218139648438	154.9010620117188	635.4392089843751	-1555.189208984375	225.0515594482422	623.6868896484376	-1591.294799804688	201.2339172363281	666.9839477539064	-1580.947143554688	265.8586120605469	740.6524658203126	-1621.369018554688	280.5736389160156	766.8479003906251	-1548.063110351562	352.6703796386719	849.0892333984376	-1038.18359375	228.83544921875	752.0352172851564	-949.2416381835938	198.5279693603516	700.067626953125	-921.17041015625	176.2752685546875	716.0502319335939	-965.9735717773438	186.9799194335938	632.6552124023438	-838.45361328125	197.7948608398438	711.0169067382812	-827.386962890625	230.0482025146484	672.4927368164062	-817.612548828125	273.3236389160156	754.4505615234375	-798.6151123046875	301.9884948730469	781.548583984375	-868.2085571289062	
